<svg fill="none" xmlns="http://www.w3.org/2000/svg" viewBox="0 0 1652 366">
  <path fill="#C79675" d="M0 0h1652v366H0z"/>
  <path d="M580.126 366c-51.285 0-94.696-17.962-130.235-53.886-35.539-35.925-53.309-79.317-53.309-130.177 0-50.25 17.806-93.135 53.416-128.656C485.609 17.761 528.985 0 580.126 0 600 0 619.318 3.425 638.081 10.276c18.763 6.85 35.756 17.197 50.98 31.04l89.689 78.126-20.537 18.723-86.675-76.79C658.421 50.49 644.072 42.232 628.489 36.6c-15.582-5.63-31.721-8.446-48.416-8.446-43.536 0-80.214 15.041-110.035 45.125-29.822 30.083-44.732 66.32-44.732 108.709 0 43 14.874 79.726 44.624 110.179 29.749 30.453 66.463 45.679 110.143 45.679 16.551 0 32.618-2.815 48.201-8.446 15.583-5.631 30.004-13.819 43.264-24.564l291.401-263.52c14.746-13.843 31.577-24.19 50.491-31.04C1032.35 3.426 1051.76 0 1071.66 0c51.28 0 94.73 17.74 130.34 53.218 35.61 35.478 53.42 78.343 53.42 128.593 0 50.859-17.81 94.273-53.42 130.24-35.61 35.966-79.06 53.949-130.34 53.949-19.87 0-39.07-3.625-57.59-10.874-18.529-7.25-35.572-17.092-51.131-29.527l-87.822-78.831 19.819-19.426 86.243 77.494c12.017 11.308 25.971 19.637 41.861 24.986 15.9 5.35 32.12 8.024 48.67 8.024 43.68 0 80.43-15.264 110.25-45.794 29.82-30.528 44.73-67.292 44.73-110.292 0-42.389-15.06-78.588-45.19-108.595-30.14-30.008-66.73-45.011-109.79-45.011-16.55 0-32.62 2.886-48.2 8.657-15.58 5.772-29.692 14.03-42.331 24.776L689.061 325.81c-14.746 13.702-31.613 23.826-50.602 30.371-18.989 6.546-38.434 9.819-58.333 9.819z" fill="#fff"/>
</svg>
